<svg width="277" height="279" viewBox="0 0 277 279" fill="none" xmlns="http://www.w3.org/2000/svg">
<mask id="mask0_623_24459" style="mask-type:alpha" maskUnits="userSpaceOnUse" x="-2" y="0" width="279" height="279">
<circle cx="137.5" cy="139.5" r="137.576" fill="#C4C4C4" stroke="#F8BB54" stroke-width="3.84828"/>
</mask>
<g mask="url(#mask0_623_24459)">
<path d="M-83.0708 58.5036C-83.0708 58.5036 -18.1115 46.4704 -1.35112 4.35483C14.6779 -36.0177 80.7061 -46.8696 80.7061 -46.8696" stroke="#F59E0B" stroke-width="4.32558" stroke-miterlimit="10"/>
<path d="M-83.0708 78.7456C-83.0708 78.7456 -3.37584 64.8573 17.1525 14.0263C36.7247 -34.4995 117.657 -46.8696 117.657 -46.8696" stroke="#F59E0B" stroke-width="4.32558" stroke-miterlimit="10"/>
<path d="M-83.0708 99.0445C-83.0708 99.0445 11.3033 83.2442 35.5999 23.8102C58.7716 -33.0373 154.608 -46.8696 154.608 -46.8696" stroke="#F59E0B" stroke-width="4.32558" stroke-miterlimit="10"/>
<path d="M-83.0708 119.287C-83.0708 119.287 26.0387 101.631 54.1035 33.4816C80.8185 -31.5191 191.559 -46.8696 191.559 -46.8696" stroke="#F59E0B" stroke-width="4.32558" stroke-miterlimit="10"/>
<path d="M-83.0708 139.53C-83.0708 139.53 40.7742 120.018 72.6072 43.2091C102.865 -30.0009 228.454 -46.8696 228.454 -46.8696" stroke="#F59E0B" stroke-width="4.32558" stroke-miterlimit="10"/>
<path d="M-83.0708 159.828C-83.0708 159.828 55.4533 138.461 91.0546 52.9366C124.968 -28.5391 265.405 -46.8696 265.405 -46.8696" stroke="#F59E0B" stroke-width="4.32558" stroke-miterlimit="10"/>
<path d="M-83.0708 180.07C-83.0708 180.07 70.1887 156.792 109.558 62.6644C147.015 -27.0209 302.356 -46.8696 302.356 -46.8696" stroke="#F59E0B" stroke-width="4.32558" stroke-miterlimit="10"/>
<path d="M-83.0708 200.313C-83.0708 200.313 84.9243 175.178 128.005 72.3359C169.062 -25.5027 339.307 -46.8696 339.307 -46.8696" stroke="#F59E0B" stroke-width="4.32558" stroke-miterlimit="10"/>
<path d="M-83.0708 220.612C-83.0708 220.612 99.6032 193.622 146.509 82.1194C191.109 -24.0409 376.202 -46.8696 376.202 -46.8696" stroke="#F59E0B" stroke-width="4.32558" stroke-miterlimit="10"/>
<path d="M-83.0708 240.853C-83.0708 240.853 114.339 212.009 164.957 91.8473C213.156 -22.5227 413.153 -46.8696 413.153 -46.8696" stroke="#F59E0B" stroke-width="4.32558" stroke-miterlimit="10"/>
<path d="M-83.0708 261.152C-83.0708 261.152 129.074 230.395 183.46 101.575C235.203 -21.0045 450.104 -46.8696 450.104 -46.8696" stroke="#F59E0B" stroke-width="4.32558" stroke-miterlimit="10"/>
<path d="M-83.0708 281.396C-83.0708 281.396 143.753 248.783 201.908 111.303C257.25 -19.5423 487.054 -46.8696 487.054 -46.8696" stroke="#F59E0B" stroke-width="4.32558" stroke-miterlimit="10"/>
<path d="M-83.0708 301.636C-83.0708 301.636 158.489 267.17 220.411 120.974C279.297 -18.0241 524.005 -46.8696 524.005 -46.8696" stroke="#F59E0B" stroke-width="4.32558" stroke-miterlimit="10"/>
<path d="M-83.0708 321.935C-83.0708 321.935 173.224 285.557 238.915 130.758C301.343 -16.5059 560.901 -46.8696 560.901 -46.8696" stroke="#F59E0B" stroke-width="4.32558" stroke-miterlimit="10"/>
<path d="M-83.0708 342.179C-83.0708 342.179 187.903 303.943 257.362 140.429C323.391 -15.0441 597.852 -46.8696 597.852 -46.8696" stroke="#F59E0B" stroke-width="4.32558" stroke-miterlimit="10"/>
<path d="M-83.0708 362.423C-83.0708 362.423 202.639 322.33 275.866 150.157C345.437 -13.5259 634.803 -46.8696 634.803 -46.8696" stroke="#F59E0B" stroke-width="4.32558" stroke-miterlimit="10"/>
<path d="M-83.0708 382.722C-83.0708 382.722 217.374 340.772 294.313 159.884C367.484 -12.0077 671.753 -46.8696 671.753 -46.8696" stroke="#F59E0B" stroke-width="4.32558" stroke-miterlimit="10"/>
<path d="M-83.0708 402.962C-83.0708 402.962 232.053 359.104 312.817 169.612C389.531 -10.546 708.65 -46.8696 708.65 -46.8696" stroke="#F59E0B" stroke-width="4.32558" stroke-miterlimit="10"/>
</g>
</svg>
